<svg width="210" height="43" viewBox="0 0 210 43" fill="none" xmlns="http://www.w3.org/2000/svg">
<path d="M29.784 0.380491V26.8715H24.108V10.7875H23.767L17.863 23.8435H12.073L6.16901 10.7875H5.82901V26.8715H0.114014V0.380491H7.19101L14.836 17.6005H15.177L22.746 0.380491H29.784Z" fill="#2767bb"/>
<path d="M42.993 12.0359C41.908 12.0359 41.007 12.3339 40.287 12.9259C39.568 13.5179 39.107 14.2829 38.906 15.2159H46.853C46.752 14.2829 46.348 13.5179 45.642 12.9259C44.936 12.3339 44.054 12.0359 42.993 12.0359ZM46.93 20.5899H52.341C51.987 22.6339 51.01 24.2549 49.408 25.4529C47.805 26.6519 45.743 27.2499 43.221 27.2499C40.293 27.2499 37.896 26.3669 36.029 24.6009C34.162 22.8359 33.229 20.5019 33.229 17.5999C33.229 14.5469 34.169 12.1119 36.049 10.2959C37.928 8.47788 40.243 7.57088 42.993 7.57088C45.592 7.57088 47.78 8.39088 49.559 10.0299C51.338 11.6709 52.24 14.1429 52.265 17.4479C52.265 17.9279 52.227 18.4319 52.152 18.9619H38.83C38.956 20.0979 39.397 21.0179 40.154 21.7239C40.912 22.4319 41.933 22.7839 43.221 22.7839C45.238 22.7839 46.475 22.0539 46.93 20.5899Z" fill="#2767bb"/>
<path d="M63.5047 27.2496C60.7537 27.2496 58.6217 26.6706 57.1087 25.5096C55.5957 24.3486 54.7757 22.7346 54.6487 20.6656H60.0607C60.2877 22.2786 61.4357 23.0876 63.5047 23.0876C65.0677 23.0876 65.8507 22.5956 65.8507 21.6116C65.8507 21.0566 65.6237 20.6276 65.1697 20.3236C64.7157 20.0216 63.9207 19.7316 62.7847 19.4536L60.7417 18.9996C59.9597 18.8236 59.2847 18.6276 58.7167 18.4126C58.1497 18.1986 57.5747 17.8896 56.9947 17.4856C56.4147 17.0826 55.9737 16.5526 55.6707 15.8956C55.3677 15.2406 55.2167 14.4586 55.2167 13.5506C55.2167 11.6576 55.9357 10.1876 57.3727 9.1416C58.8127 8.0946 60.5777 7.5706 62.6717 7.5706C65.2197 7.5706 67.1877 8.1256 68.5757 9.2356C69.9627 10.3466 70.7327 11.7846 70.8847 13.5506H65.4347C65.2327 12.3386 64.3237 11.7336 62.7097 11.7336C62.0787 11.7336 61.5737 11.8656 61.1957 12.1316C60.8167 12.3956 60.6277 12.7556 60.6277 13.2096C60.6277 13.5376 60.7607 13.8156 61.0257 14.0416C61.2907 14.2706 61.5807 14.4346 61.8967 14.5336C62.2107 14.6356 62.7337 14.7866 63.4667 14.9876L65.5477 15.4796C67.4147 15.9096 68.8267 16.5906 69.7867 17.5236C70.7447 18.4576 71.2247 19.7566 71.2247 21.4216C71.2247 23.3396 70.5057 24.7896 69.0667 25.7736C67.6297 26.7576 65.7757 27.2496 63.5047 27.2496Z" fill="#2767bb"/>
<path d="M82.4656 27.2496C79.7146 27.2496 77.5826 26.6706 76.0696 25.5096C74.5556 24.3486 73.7366 22.7346 73.6096 20.6656H79.0216C79.2486 22.2786 80.3966 23.0876 82.4656 23.0876C84.0286 23.0876 84.8116 22.5956 84.8116 21.6116C84.8116 21.0566 84.5846 20.6276 84.1306 20.3236C83.6766 20.0216 82.8816 19.7316 81.7456 19.4536L79.7026 18.9996C78.9206 18.8236 78.2456 18.6276 77.6776 18.4126C77.1106 18.1986 76.5356 17.8896 75.9556 17.4856C75.3756 17.0826 74.9346 16.5526 74.6316 15.8956C74.3286 15.2406 74.1776 14.4586 74.1776 13.5506C74.1776 11.6576 74.8966 10.1876 76.3336 9.1416C77.7736 8.0946 79.5376 7.5706 81.6326 7.5706C84.1806 7.5706 86.1486 8.1256 87.5366 9.2356C88.9236 10.3466 89.6936 11.7846 89.8456 13.5506H84.3956C84.1936 12.3386 83.2846 11.7336 81.6706 11.7336C81.0396 11.7336 80.5346 11.8656 80.1566 12.1316C79.7776 12.3956 79.5886 12.7556 79.5886 13.2096C79.5886 13.5376 79.7216 13.8156 79.9866 14.0416C80.2516 14.2706 80.5416 14.4346 80.8576 14.5336C81.1716 14.6356 81.6946 14.7866 82.4276 14.9876L84.5086 15.4796C86.3756 15.9096 87.7876 16.5906 88.7476 17.5236C89.7056 18.4576 90.1856 19.7566 90.1856 21.4216C90.1856 23.3396 89.4666 24.7896 88.0276 25.7736C86.5906 26.7576 84.7366 27.2496 82.4656 27.2496Z" fill="#2767bb"/>
<path d="M104.68 19.568V19.038L100.668 19.492C99.0535 19.669 98.2455 20.286 98.2455 21.346C98.2455 22.431 98.9915 22.973 100.479 22.973C101.563 22.973 102.535 22.697 103.393 22.141C104.251 21.587 104.68 20.729 104.68 19.568ZM111.681 22.672H112.135V26.872H109.789C107.745 26.872 106.382 26.128 105.701 24.639C104.414 26.38 102.346 27.25 99.4945 27.25C97.4015 27.25 95.7235 26.764 94.4625 25.793C93.2005 24.822 92.5705 23.427 92.5705 21.612C92.5705 19.87 93.1305 18.527 94.2545 17.581C95.3765 16.634 96.8595 16.06 98.7015 15.858L104.68 15.215V14.61C104.68 12.895 103.772 12.036 101.954 12.036C100.214 12.036 99.2045 12.857 98.9285 14.496H93.2505C93.4525 12.428 94.3235 10.756 95.8625 9.48103C97.4015 8.20803 99.4325 7.57103 101.954 7.57103C104.402 7.57103 106.414 8.18903 107.992 9.42403C109.568 10.662 110.357 12.541 110.357 15.064V21.27C110.357 22.205 110.798 22.672 111.681 22.672Z" fill="#2767bb"/>
<path d="M120.82 15.7458C121.363 16.1748 122.101 16.3888 123.035 16.3888C123.967 16.3888 124.706 16.1748 125.249 15.7458C125.791 15.3168 126.062 14.7488 126.062 14.0418C126.062 13.2858 125.798 12.6858 125.267 12.2448C124.737 11.8038 123.993 11.5828 123.035 11.5828C122.076 11.5828 121.332 11.8038 120.801 12.2448C120.272 12.6858 120.008 13.2858 120.008 14.0418C120.008 14.7488 120.278 15.3168 120.82 15.7458ZM127.008 28.4998C127.008 27.3638 126.201 26.7958 124.587 26.7958H121.142L119.023 28.6118C119.477 29.9748 120.865 30.6558 123.186 30.6558C124.296 30.6558 125.211 30.4678 125.93 30.0878C126.649 29.7098 127.008 29.1798 127.008 28.4998ZM133.215 8.70676C132.534 9.43776 131.549 10.0938 130.263 10.6748C131.07 11.7088 131.474 12.8568 131.474 14.1178C131.474 16.0858 130.679 17.6378 129.09 18.7718C127.501 19.9078 125.482 20.4758 123.035 20.4758C121.924 20.4758 120.916 20.3618 120.008 20.1358C119.553 20.3878 119.326 20.7288 119.326 21.1578C119.326 21.9898 120.108 22.4058 121.673 22.4058H125.343C127.638 22.4058 129.393 22.9238 130.604 23.9578C131.815 24.9918 132.42 26.3918 132.42 28.1578C132.42 30.2268 131.6 31.8548 129.96 33.0398C128.32 34.2258 126.049 34.8188 123.148 34.8188C120.196 34.8188 117.92 34.2198 116.317 33.0218C114.715 31.8228 113.825 30.3148 113.649 28.4998L116.374 26.0398C115.011 25.2308 114.331 24.0838 114.331 22.5958C114.331 21.0058 115.201 19.7198 116.941 18.7358C115.377 17.5998 114.595 16.0598 114.595 14.1178C114.595 12.2258 115.327 10.6618 116.791 9.42476C118.253 8.18876 120.247 7.57076 122.769 7.57076C124.383 7.57076 125.847 7.84876 127.16 8.40276C128.522 7.72276 129.644 6.81376 130.528 5.67876L133.215 8.70676Z" fill="#2767bb"/>
<path d="M143.964 12.0359C142.878 12.0359 141.977 12.3339 141.258 12.9259C140.539 13.5179 140.078 14.2829 139.876 15.2159H147.823C147.723 14.2829 147.319 13.5179 146.612 12.9259C145.906 12.3339 145.024 12.0359 143.964 12.0359ZM147.9 20.5899H153.312C152.958 22.6339 151.981 24.2549 150.378 25.4529C148.776 26.6519 146.713 27.2499 144.191 27.2499C141.264 27.2499 138.866 26.3669 137 24.6009C135.133 22.8359 134.199 20.5019 134.199 17.5999C134.199 14.5469 135.139 12.1119 137.019 10.2959C138.899 8.47788 141.214 7.57088 143.964 7.57088C146.562 7.57088 148.751 8.39088 150.529 10.0299C152.309 11.6709 153.21 14.1429 153.235 17.4479C153.235 17.9279 153.197 18.4319 153.122 18.9619H139.801C139.927 20.0979 140.368 21.0179 141.125 21.7239C141.882 22.4319 142.903 22.7839 144.191 22.7839C146.208 22.7839 147.445 22.0539 147.9 20.5899Z" fill="#2767bb"/>
<path d="M169.886 21.8756C172.132 21.8756 173.986 21.1006 175.449 19.5486C176.912 17.9966 177.645 16.0226 177.645 13.6256C177.645 11.2546 176.912 9.28663 175.449 7.72263C173.986 6.15763 172.132 5.37663 169.886 5.37663C167.615 5.37663 165.742 6.15063 164.266 7.70263C162.79 9.25563 162.052 11.2296 162.052 13.6256C162.052 16.0226 162.79 17.9966 164.266 19.5486C165.742 21.1006 167.615 21.8756 169.886 21.8756ZM169.848 27.2496C165.862 27.2496 162.569 25.9576 159.971 23.3706C157.372 20.7856 156.073 17.5366 156.073 13.6256C156.073 9.74063 157.378 6.49963 159.99 3.89963C162.601 1.30163 165.9 0.00263405 169.886 0.00263405C173.847 0.00263405 177.126 1.30163 179.726 3.89963C182.324 6.49963 183.623 9.74063 183.623 13.6256C183.623 17.5116 182.33 20.7546 179.744 23.3526C177.158 25.9506 173.86 27.2496 169.848 27.2496Z" fill="#2767bb"/>
<path d="M205.877 7.94892L198.157 15.4039L205.877 26.8719H199.634L194.335 19.1139L192.746 20.6659V26.8719H187.069V0.00291824H192.746V13.6639H193.086L199.065 7.94892H205.877Z" fill="#2767bb"/>
<path d="M209.01 32.7828C208.666 32.1118 207.844 31.8458 207.173 32.1908C204.364 33.6318 201.623 34.7898 198.966 35.7208C198.334 34.9138 197.363 34.3868 196.259 34.3868C194.467 34.3868 193.011 35.7578 192.841 37.5048C183.568 39.6768 175.627 39.1328 169.9 37.9758C160.655 36.1088 154.977 32.3138 154.92 32.2758C154.297 31.8538 153.449 32.0148 153.026 32.6368C152.601 33.2608 152.762 34.1098 153.385 34.5338C153.63 34.7008 159.485 38.6328 169.227 40.6258C172.321 41.2578 176.023 41.7248 180.211 41.7248C184.281 41.7248 188.814 41.2778 193.687 40.1168C194.319 40.8298 195.231 41.2878 196.259 41.2878C197.982 41.2878 199.398 40.0208 199.656 38.3698C202.493 37.3868 205.418 36.1588 208.418 34.6208C209.089 34.2758 209.354 33.4538 209.01 32.7828Z" fill="#2767bb"/>
<path d="M154.156 32.4167C153.839 32.4167 153.527 32.5677 153.336 32.8487C153.187 33.0667 153.132 33.3307 153.181 33.5907C153.23 33.8507 153.378 34.0747 153.596 34.2247C153.839 34.3887 159.626 38.2787 169.302 40.2587C177.112 41.8537 185.446 41.6947 193.6 39.7517C193.735 39.7197 193.877 39.7647 193.968 39.8677C194.565 40.5417 195.379 40.9127 196.26 40.9127C197.778 40.9127 199.051 39.8187 199.286 38.3127C199.307 38.1747 199.402 38.0617 199.533 38.0157C202.486 36.9917 205.418 35.7377 208.248 34.2867C208.733 34.0377 208.926 33.4387 208.677 32.9537C208.556 32.7187 208.351 32.5437 208.099 32.4627C207.846 32.3807 207.579 32.4027 207.345 32.5247C204.657 33.9027 201.88 35.0977 199.091 36.0747C198.939 36.1307 198.771 36.0787 198.672 35.9527C198.079 35.1957 197.2 34.7617 196.26 34.7617C194.677 34.7617 193.369 35.9567 193.215 37.5407C193.199 37.7007 193.084 37.8327 192.927 37.8697C183.19 40.1517 174.99 39.3877 169.826 38.3437C160.566 36.4737 154.769 32.6257 154.712 32.5877C154.541 32.4727 154.347 32.4167 154.156 32.4167ZM180.212 42.1007C176.47 42.1007 172.75 41.7287 169.152 40.9927C159.33 38.9827 153.421 35.0117 153.175 34.8437C152.791 34.5827 152.531 34.1877 152.444 33.7297C152.358 33.2727 152.454 32.8107 152.717 32.4267C153.257 31.6357 154.341 31.4297 155.131 31.9657C155.186 32.0027 160.86 35.7687 169.974 37.6087C175.021 38.6267 183.01 39.3767 192.504 37.1977C192.811 35.3627 194.381 34.0117 196.26 34.0117C197.343 34.0117 198.358 34.4717 199.087 35.2807C201.761 34.3307 204.424 33.1797 207.003 31.8567C207.416 31.6457 207.886 31.6057 208.329 31.7487C208.771 31.8917 209.133 32.1977 209.344 32.6117C209.781 33.4657 209.443 34.5167 208.59 34.9547C205.795 36.3877 202.901 37.6317 199.985 38.6517C199.605 40.4097 198.073 41.6627 196.26 41.6627C195.252 41.6627 194.281 41.2537 193.562 40.5317C189.124 41.5727 184.634 42.1007 180.212 42.1007Z" fill="#2767bb"/>
<path d="M201.044 37.7574C201.044 40.4474 198.863 42.6284 196.173 42.6284C193.483 42.6284 191.303 40.4474 191.303 37.7574C191.303 35.0684 193.483 32.8874 196.173 32.8874C198.863 32.8874 201.044 35.0684 201.044 37.7574Z" fill="#2767bb"/>
</svg>
